<svg width="20" height="20" viewBox="0 0 20 20" fill="none" xmlns="http://www.w3.org/2000/svg">
<path fill-rule="evenodd" clip-rule="evenodd" d="M10.6942 15.9725C10.8114 16.0895 10.9702 16.1553 11.1359 16.1553C11.3015 16.1553 11.4604 16.0895 11.5775 15.9725L17.1084 10.4417C17.2254 10.3245 17.2912 10.1656 17.2912 9.99998C17.2912 9.83436 17.2254 9.67551 17.1084 9.55832L11.5775 4.02748C11.4591 3.91708 11.3024 3.85698 11.1404 3.85984C10.9785 3.8627 10.824 3.92829 10.7095 4.0428C10.595 4.15731 10.5294 4.3118 10.5266 4.47372C10.5237 4.63563 10.5838 4.79234 10.6942 4.91082L15.1575 9.37498H3.33337C3.16761 9.37498 3.00864 9.44083 2.89143 9.55804C2.77422 9.67525 2.70837 9.83422 2.70837 9.99998C2.70837 10.1657 2.77422 10.3247 2.89143 10.4419C3.00864 10.5591 3.16761 10.625 3.33337 10.625H15.1584L10.6942 15.0892C10.5772 15.2063 10.5114 15.3652 10.5114 15.5308C10.5114 15.6964 10.5772 15.8553 10.6942 15.9725Z" fill="#1C1C1E"/>
</svg>
